<svg width="130.999237" height="27.587646" viewBox="0 0 130.999 27.5876" fill="none" xmlns="http://www.w3.org/2000/svg" xmlns:xlink="http://www.w3.org/1999/xlink">
	<desc>
			Created with Pixso.
	</desc>
	<defs/>
	<path id="Vector" d="M12.53 7.95C13.39 8.22 14.67 9.12 15.29 9.71C15.49 9.91 15.87 9.9 16.12 9.71L18.51 7.35C18.7 7.16 18.7 6.73 18.57 6.52C17.69 5.67 16.05 4.53 14.79 4.03L12.53 7.95Z" fill="#EEF3FF" fill-opacity="1.000000" fill-rule="nonzero"/>
	<path id="Vector" d="M4.92 16.08C4.81 15.55 4.76 15 4.76 14.41C4.76 11.07 6.55 8.5 9.62 7.95L12.22 3.44C11.79 3.38 11.34 3.35 10.9 3.35C4.54 3.35 0 7.93 0 14.41C0 17.06 0.74 19.33 2.02 21.11L4.92 16.08Z" fill="#EEF3FF" fill-opacity="1.000000" fill-rule="nonzero"/>
	<path id="Vector" d="M10.9 20.98C9.32 20.98 7.87 20.43 6.78 19.43L4.43 23.5C6.24 24.77 8.48 25.47 10.9 25.47C13.85 25.47 16.64 24.18 18.58 22.33C18.73 22.18 18.67 21.75 18.58 21.54L16.24 19.2C15.93 18.96 15.5 18.93 15.29 19.11C14.12 20.28 12.59 20.98 10.9 20.98Z" fill="#EEF3FF" fill-opacity="1.000000" fill-rule="nonzero"/>
	<path id="Vector" d="M4.83 17.17C4.9 17.07 4.94 16.97 4.96 16.87C4.99 16.76 5 16.61 4.99 16.4L4.85 13.44C4.85 13.3 4.83 13.18 4.79 13.1C4.76 13.01 4.72 12.97 4.67 12.97C4.63 12.98 4.58 13.03 4.53 13.11L0.85 19.52C0.79 19.63 0.75 19.73 0.72 19.83C0.7 19.93 0.69 20.09 0.7 20.3L0.83 23.25C0.84 23.4 0.86 23.51 0.9 23.6C0.93 23.68 0.97 23.73 1.01 23.72C1.06 23.72 1.11 23.67 1.16 23.58L4.83 17.17Z" fill="#EEF3FF" fill-opacity="1.000000" fill-rule="nonzero"/>
	<path id="Vector" d="M12.02 4.19C12.08 4.09 12.13 3.99 12.15 3.89C12.18 3.79 12.18 3.63 12.17 3.42L12.04 0.47C12.04 0.32 12.01 0.2 11.98 0.12C11.94 0.03 11.91 -0.01 11.86 0C11.81 0 11.76 0.05 11.72 0.13L8.04 6.54C7.98 6.65 7.93 6.75 7.91 6.85C7.89 6.95 7.88 7.11 7.89 7.32L8.02 10.27C8.03 10.42 8.05 10.53 8.08 10.62C8.12 10.71 8.16 10.75 8.2 10.74C8.25 10.74 8.3 10.69 8.34 10.6L12.02 4.19Z" fill="#EEF3FF" fill-opacity="1.000000" fill-rule="nonzero"/>
	<path id="Vector" d="M7.75 21.04C7.82 20.93 7.86 20.83 7.88 20.73C7.91 20.63 7.91 20.47 7.9 20.26L7.77 17.31C7.77 17.16 7.75 17.04 7.71 16.96C7.68 16.87 7.64 16.83 7.59 16.84C7.54 16.84 7.5 16.89 7.45 16.97L3.77 23.38C3.71 23.49 3.67 23.59 3.64 23.69C3.62 23.79 3.61 23.95 3.62 24.16L3.75 27.11C3.76 27.26 3.78 27.37 3.81 27.46C3.85 27.55 3.89 27.59 3.93 27.58C3.98 27.58 4.03 27.53 4.07 27.44L7.75 21.04Z" fill="#EEF3FF" fill-opacity="1.000000" fill-rule="nonzero"/>
	<path id="Vector" d="M57.96 13.85C58.24 13.73 60.28 12.71 60.28 9.51C60.28 6.53 58.05 3.76 52.87 3.76L43.97 3.76C43.24 3.76 43.05 4.11 43.05 4.69L43.05 23.79C43.05 24.36 43.24 24.71 43.97 24.71L53.31 24.71C57.73 24.71 60.88 22.64 60.88 18.6C60.88 15.16 58.21 13.95 57.96 13.85ZM53.38 20.19L48.04 20.19L48.04 8.25L52.87 8.25C54.52 8.25 55.51 8.6 55.51 10.02C55.51 11.25 54.71 11.91 52.87 11.91L52.46 11.91C51.73 11.91 51.54 12.26 51.54 12.84L51.54 15.25C51.54 15.83 51.73 16.18 52.46 16.18L53.19 16.18C54.71 16.18 55.83 16.62 55.83 18.12C55.83 19.55 54.94 20.19 53.38 20.19Z" fill="#EEF3FF" fill-opacity="1.000000" fill-rule="nonzero"/>
	<path id="Vector" d="M99.53 23.69L95.05 17.16C97.02 16.49 99.47 14.16 99.47 10.81C99.47 8.77 98.8 6.96 97.63 5.81C96.29 4.47 94.76 3.77 91.3 3.77L83.28 3.77C82.55 3.77 82.39 4.12 82.39 4.69L82.39 23.79C82.39 24.53 82.71 24.72 83.28 24.72L86.43 24.72C87 24.72 87.35 24.53 87.35 23.79L87.35 8.23L91.58 8.23C93.24 8.23 94.51 9.28 94.51 10.94C94.51 12.44 93.05 13.52 91.49 13.52L90.85 13.52C90.12 13.52 89.93 13.87 89.93 14.45L89.93 17C89.93 17.89 89.99 18.24 90.28 18.62L93.71 23.76C94.16 24.43 94.54 24.72 95.3 24.72L99.06 24.72C99.66 24.72 99.82 24.14 99.53 23.69Z" fill="#EEF3FF" fill-opacity="1.000000" fill-rule="nonzero"/>
	<path id="Vector" d="M124.31 20.44L120.58 10.25L115.44 24.08C115.34 24.33 115.22 24.5 115.08 24.59C114.95 24.68 114.74 24.73 114.45 24.73L110.73 24.73C110.36 24.73 110.17 24.55 110.17 24.2C110.17 24.06 110.2 23.89 110.26 23.71L118.24 4.7C118.39 4.35 118.54 4.11 118.72 3.98C118.89 3.85 119.15 3.78 119.47 3.78L121.72 3.78C122.05 3.78 122.3 3.85 122.46 3.98C122.63 4.11 122.78 4.35 122.92 4.7L130.9 23.71C130.96 23.89 130.99 24.06 130.99 24.2C130.99 24.55 130.81 24.73 130.44 24.73L126.71 24.73C126.43 24.73 126.22 24.68 126.08 24.59C125.95 24.5 125.83 24.33 125.73 24.08L124.31 20.44Z" fill="#EEF3FF" fill-opacity="1.000000" fill-rule="nonzero"/>
	<path id="Vector" d="M103.76 24.73C103.26 24.73 102.91 24.62 102.69 24.4C102.48 24.19 102.37 23.85 102.37 23.4L102.37 5.13C102.37 4.68 102.48 4.34 102.69 4.12C102.91 3.89 103.26 3.78 103.76 3.78L106.07 3.78C106.58 3.78 106.94 3.89 107.14 4.1C107.35 4.32 107.45 4.66 107.45 5.13L107.45 23.4C107.45 23.85 107.35 24.19 107.14 24.4C106.94 24.62 106.58 24.73 106.07 24.73L103.76 24.73Z" fill="#EEF3FF" fill-opacity="1.000000" fill-rule="nonzero"/>
	<path id="Vector" d="M28.92 24.73C28.42 24.73 28.07 24.62 27.85 24.4C27.64 24.19 27.53 23.85 27.53 23.4L27.53 17.58L20.08 4.8C19.97 4.63 19.92 4.47 19.92 4.3C19.92 4.16 19.98 4.04 20.09 3.93C20.2 3.83 20.35 3.78 20.54 3.78L24.23 3.78C24.52 3.78 24.73 3.83 24.85 3.92C24.97 4.01 25.1 4.17 25.22 4.4L30.09 12.93L34.95 4.4C35.08 4.17 35.2 4.01 35.32 3.92C35.45 3.83 35.64 3.78 35.91 3.78L39.64 3.78C39.82 3.78 39.97 3.83 40.08 3.93C40.2 4.04 40.25 4.16 40.25 4.3C40.25 4.47 40.2 4.63 40.1 4.8L32.64 17.61L32.64 23.4C32.64 23.85 32.54 24.19 32.32 24.4C32.1 24.62 31.74 24.73 31.23 24.73L28.92 24.73Z" fill="#EEF3FF" fill-opacity="1.000000" fill-rule="nonzero"/>
	<path id="Vector" d="M65.03 24.73C64.53 24.73 64.18 24.62 63.96 24.4C63.75 24.19 63.64 23.85 63.64 23.4L63.64 5.13C63.64 4.68 63.75 4.34 63.96 4.12C64.18 3.89 64.53 3.78 65.03 3.78L78.36 3.78C78.86 3.78 79.2 3.88 79.38 4.07C79.57 4.27 79.66 4.6 79.66 5.07L79.66 6.21C79.66 6.68 79.57 7.02 79.38 7.23C79.2 7.43 78.86 7.54 78.36 7.54L68.72 7.54L68.72 12.4L75.07 12.4C75.56 12.4 75.9 12.5 76.08 12.7C76.27 12.89 76.36 13.23 76.36 13.7L76.36 14.78C76.36 15.25 76.27 15.59 76.08 15.79C75.9 16 75.56 16.1 75.07 16.1L68.72 16.1L68.72 21L77.78 21C78.27 21 78.61 21.1 78.79 21.31C78.98 21.51 79.07 21.85 79.07 22.32L79.07 23.43C79.07 23.9 78.98 24.24 78.79 24.43C78.61 24.63 78.27 24.73 77.78 24.73L65.03 24.73Z" fill="#EEF3FF" fill-opacity="1.000000" fill-rule="nonzero"/>
</svg>
